<mxfile host="app.diagrams.net" agent="Mozilla/5.0 (Windows NT 10.0; Win64; x64) AppleWebKit/537.36 (KHTML, like Gecko) Chrome/127.0.0.0 Safari/537.36" version="24.7.6">
  <diagram id="C5RBs43oDa-KdzZeNtuy" name="Page-1">
    <mxGraphModel dx="1434" dy="772" grid="1" gridSize="10" guides="1" tooltips="1" connect="1" arrows="1" fold="1" page="1" pageScale="1" pageWidth="827" pageHeight="1169" math="0" shadow="0">
      <root>
        <mxCell id="WIyWlLk6GJQsqaUBKTNV-0" />
        <mxCell id="WIyWlLk6GJQsqaUBKTNV-1" parent="WIyWlLk6GJQsqaUBKTNV-0" />
        <mxCell id="WIyWlLk6GJQsqaUBKTNV-3" value="DAMU KE Blood bank" style="rounded=1;whiteSpace=wrap;html=1;fontSize=12;glass=0;strokeWidth=1;shadow=0;" parent="WIyWlLk6GJQsqaUBKTNV-1" vertex="1">
          <mxGeometry x="414" y="20" width="120" height="50" as="geometry" />
        </mxCell>
        <mxCell id="6d0mBlJnEgmpbv1rLdrM-5" style="edgeStyle=orthogonalEdgeStyle;rounded=0;orthogonalLoop=1;jettySize=auto;html=1;" parent="WIyWlLk6GJQsqaUBKTNV-1" source="WIyWlLk6GJQsqaUBKTNV-6" target="6d0mBlJnEgmpbv1rLdrM-1" edge="1">
          <mxGeometry relative="1" as="geometry" />
        </mxCell>
        <mxCell id="6d0mBlJnEgmpbv1rLdrM-8" value="YES" style="edgeLabel;html=1;align=center;verticalAlign=middle;resizable=0;points=[];" parent="6d0mBlJnEgmpbv1rLdrM-5" vertex="1" connectable="0">
          <mxGeometry x="-0.25" y="1" relative="1" as="geometry">
            <mxPoint as="offset" />
          </mxGeometry>
        </mxCell>
        <mxCell id="6d0mBlJnEgmpbv1rLdrM-16" style="edgeStyle=orthogonalEdgeStyle;rounded=0;orthogonalLoop=1;jettySize=auto;html=1;exitX=1;exitY=0.5;exitDx=0;exitDy=0;" parent="WIyWlLk6GJQsqaUBKTNV-1" source="WIyWlLk6GJQsqaUBKTNV-6" edge="1">
          <mxGeometry relative="1" as="geometry">
            <mxPoint x="570" y="170" as="targetPoint" />
          </mxGeometry>
        </mxCell>
        <mxCell id="6d0mBlJnEgmpbv1rLdrM-17" value="NO" style="edgeLabel;html=1;align=center;verticalAlign=middle;resizable=0;points=[];" parent="6d0mBlJnEgmpbv1rLdrM-16" vertex="1" connectable="0">
          <mxGeometry x="-0.2" y="2" relative="1" as="geometry">
            <mxPoint x="-8" y="12" as="offset" />
          </mxGeometry>
        </mxCell>
        <mxCell id="WIyWlLk6GJQsqaUBKTNV-6" value="Is requested blood available" style="rhombus;whiteSpace=wrap;html=1;shadow=0;fontFamily=Helvetica;fontSize=12;align=center;strokeWidth=1;spacing=6;spacingTop=-4;" parent="WIyWlLk6GJQsqaUBKTNV-1" vertex="1">
          <mxGeometry x="414" y="110" width="136" height="120" as="geometry" />
        </mxCell>
        <mxCell id="6d0mBlJnEgmpbv1rLdrM-2" style="edgeStyle=orthogonalEdgeStyle;rounded=0;orthogonalLoop=1;jettySize=auto;html=1;entryX=1;entryY=0.25;entryDx=0;entryDy=0;" parent="WIyWlLk6GJQsqaUBKTNV-1" source="6d0mBlJnEgmpbv1rLdrM-1" target="WIyWlLk6GJQsqaUBKTNV-3" edge="1">
          <mxGeometry relative="1" as="geometry">
            <Array as="points">
              <mxPoint x="570" y="340" />
              <mxPoint x="570" y="30" />
              <mxPoint x="550" y="30" />
            </Array>
          </mxGeometry>
        </mxCell>
        <mxCell id="6d0mBlJnEgmpbv1rLdrM-1" value="AFYA KE LAB STORE" style="rounded=1;whiteSpace=wrap;html=1;" parent="WIyWlLk6GJQsqaUBKTNV-1" vertex="1">
          <mxGeometry x="422" y="320" width="120" height="40" as="geometry" />
        </mxCell>
        <mxCell id="6d0mBlJnEgmpbv1rLdrM-14" value="Fullfil requisition" style="shape=parallelogram;perimeter=parallelogramPerimeter;whiteSpace=wrap;html=1;fixedSize=1;" parent="WIyWlLk6GJQsqaUBKTNV-1" vertex="1">
          <mxGeometry x="360" y="240" width="120" height="60" as="geometry" />
        </mxCell>
        <mxCell id="6d0mBlJnEgmpbv1rLdrM-36" style="edgeStyle=orthogonalEdgeStyle;rounded=0;orthogonalLoop=1;jettySize=auto;html=1;" parent="WIyWlLk6GJQsqaUBKTNV-1" source="6d0mBlJnEgmpbv1rLdrM-20" target="6d0mBlJnEgmpbv1rLdrM-37" edge="1">
          <mxGeometry relative="1" as="geometry">
            <mxPoint x="550" y="740" as="targetPoint" />
          </mxGeometry>
        </mxCell>
        <mxCell id="6d0mBlJnEgmpbv1rLdrM-20" value="AFYAKE LAB" style="rounded=1;whiteSpace=wrap;html=1;" parent="WIyWlLk6GJQsqaUBKTNV-1" vertex="1">
          <mxGeometry x="370" y="580" width="120" height="60" as="geometry" />
        </mxCell>
        <mxCell id="6d0mBlJnEgmpbv1rLdrM-22" style="edgeStyle=orthogonalEdgeStyle;rounded=0;orthogonalLoop=1;jettySize=auto;html=1;entryX=0.75;entryY=1;entryDx=0;entryDy=0;" parent="WIyWlLk6GJQsqaUBKTNV-1" source="6d0mBlJnEgmpbv1rLdrM-21" target="6d0mBlJnEgmpbv1rLdrM-1" edge="1">
          <mxGeometry relative="1" as="geometry" />
        </mxCell>
        <mxCell id="6d0mBlJnEgmpbv1rLdrM-23" value="CREATE BLOOD REQUEST FOR A PATIENT" style="edgeLabel;html=1;align=center;verticalAlign=middle;resizable=0;points=[];" parent="6d0mBlJnEgmpbv1rLdrM-22" vertex="1" connectable="0">
          <mxGeometry x="-0.121" y="3" relative="1" as="geometry">
            <mxPoint x="-1" y="7" as="offset" />
          </mxGeometry>
        </mxCell>
        <mxCell id="6d0mBlJnEgmpbv1rLdrM-29" style="edgeStyle=orthogonalEdgeStyle;rounded=0;orthogonalLoop=1;jettySize=auto;html=1;exitX=1;exitY=0.5;exitDx=0;exitDy=0;" parent="WIyWlLk6GJQsqaUBKTNV-1" source="6d0mBlJnEgmpbv1rLdrM-21" edge="1">
          <mxGeometry relative="1" as="geometry">
            <mxPoint x="440" y="580" as="targetPoint" />
          </mxGeometry>
        </mxCell>
        <mxCell id="6d0mBlJnEgmpbv1rLdrM-30" value="DRAW PATIENT BLOOD FOR TESTING BG" style="edgeLabel;html=1;align=center;verticalAlign=middle;resizable=0;points=[];" parent="6d0mBlJnEgmpbv1rLdrM-29" vertex="1" connectable="0">
          <mxGeometry x="-0.2252" y="2" relative="1" as="geometry">
            <mxPoint as="offset" />
          </mxGeometry>
        </mxCell>
        <mxCell id="6d0mBlJnEgmpbv1rLdrM-67" style="edgeStyle=orthogonalEdgeStyle;rounded=0;orthogonalLoop=1;jettySize=auto;html=1;" parent="WIyWlLk6GJQsqaUBKTNV-1" source="6d0mBlJnEgmpbv1rLdrM-21" edge="1">
          <mxGeometry relative="1" as="geometry">
            <mxPoint x="800" y="300" as="targetPoint" />
          </mxGeometry>
        </mxCell>
        <mxCell id="6d0mBlJnEgmpbv1rLdrM-21" value="PATIENT IN WARD&amp;nbsp;" style="rounded=1;whiteSpace=wrap;html=1;" parent="WIyWlLk6GJQsqaUBKTNV-1" vertex="1">
          <mxGeometry x="690" y="420" width="120" height="40" as="geometry" />
        </mxCell>
        <mxCell id="6d0mBlJnEgmpbv1rLdrM-31" style="edgeStyle=orthogonalEdgeStyle;rounded=0;orthogonalLoop=1;jettySize=auto;html=1;entryX=0.108;entryY=1.075;entryDx=0;entryDy=0;entryPerimeter=0;" parent="WIyWlLk6GJQsqaUBKTNV-1" source="6d0mBlJnEgmpbv1rLdrM-20" target="6d0mBlJnEgmpbv1rLdrM-1" edge="1">
          <mxGeometry relative="1" as="geometry" />
        </mxCell>
        <mxCell id="6d0mBlJnEgmpbv1rLdrM-35" value="TEST STORED BLOOD FOR BG" style="edgeLabel;html=1;align=center;verticalAlign=middle;resizable=0;points=[];" parent="6d0mBlJnEgmpbv1rLdrM-31" vertex="1" connectable="0">
          <mxGeometry x="-0.2703" relative="1" as="geometry">
            <mxPoint as="offset" />
          </mxGeometry>
        </mxCell>
        <mxCell id="6d0mBlJnEgmpbv1rLdrM-38" style="edgeStyle=orthogonalEdgeStyle;rounded=0;orthogonalLoop=1;jettySize=auto;html=1;" parent="WIyWlLk6GJQsqaUBKTNV-1" source="6d0mBlJnEgmpbv1rLdrM-37" edge="1">
          <mxGeometry relative="1" as="geometry">
            <mxPoint x="250" y="480" as="targetPoint" />
            <Array as="points">
              <mxPoint x="251" y="765" />
            </Array>
          </mxGeometry>
        </mxCell>
        <mxCell id="6d0mBlJnEgmpbv1rLdrM-40" value="NO" style="edgeLabel;html=1;align=center;verticalAlign=middle;resizable=0;points=[];" parent="6d0mBlJnEgmpbv1rLdrM-38" vertex="1" connectable="0">
          <mxGeometry x="-0.2978" y="-1" relative="1" as="geometry">
            <mxPoint as="offset" />
          </mxGeometry>
        </mxCell>
        <mxCell id="6d0mBlJnEgmpbv1rLdrM-41" style="edgeStyle=orthogonalEdgeStyle;rounded=0;orthogonalLoop=1;jettySize=auto;html=1;exitX=0.5;exitY=1;exitDx=0;exitDy=0;" parent="WIyWlLk6GJQsqaUBKTNV-1" source="6d0mBlJnEgmpbv1rLdrM-37" edge="1">
          <mxGeometry relative="1" as="geometry">
            <mxPoint x="575" y="900" as="targetPoint" />
          </mxGeometry>
        </mxCell>
        <mxCell id="6d0mBlJnEgmpbv1rLdrM-42" value="YES" style="edgeLabel;html=1;align=center;verticalAlign=middle;resizable=0;points=[];" parent="6d0mBlJnEgmpbv1rLdrM-41" vertex="1" connectable="0">
          <mxGeometry x="-0.0808" relative="1" as="geometry">
            <mxPoint as="offset" />
          </mxGeometry>
        </mxCell>
        <mxCell id="6d0mBlJnEgmpbv1rLdrM-37" value="Does patient BG and stored BG match" style="rhombus;whiteSpace=wrap;html=1;" parent="WIyWlLk6GJQsqaUBKTNV-1" vertex="1">
          <mxGeometry x="510" y="700" width="130" height="120" as="geometry" />
        </mxCell>
        <mxCell id="6d0mBlJnEgmpbv1rLdrM-39" value="" style="endArrow=classic;html=1;rounded=0;" parent="WIyWlLk6GJQsqaUBKTNV-1" edge="1">
          <mxGeometry width="50" height="50" relative="1" as="geometry">
            <mxPoint x="240" y="480" as="sourcePoint" />
            <mxPoint x="430" y="470" as="targetPoint" />
          </mxGeometry>
        </mxCell>
        <mxCell id="6d0mBlJnEgmpbv1rLdrM-47" style="edgeStyle=orthogonalEdgeStyle;rounded=0;orthogonalLoop=1;jettySize=auto;html=1;entryX=1;entryY=0.5;entryDx=0;entryDy=0;" parent="WIyWlLk6GJQsqaUBKTNV-1" source="6d0mBlJnEgmpbv1rLdrM-43" target="6d0mBlJnEgmpbv1rLdrM-37" edge="1">
          <mxGeometry relative="1" as="geometry" />
        </mxCell>
        <mxCell id="6d0mBlJnEgmpbv1rLdrM-48" value="NO" style="edgeLabel;html=1;align=center;verticalAlign=middle;resizable=0;points=[];" parent="6d0mBlJnEgmpbv1rLdrM-47" vertex="1" connectable="0">
          <mxGeometry x="0.2474" y="-4" relative="1" as="geometry">
            <mxPoint y="1" as="offset" />
          </mxGeometry>
        </mxCell>
        <mxCell id="6d0mBlJnEgmpbv1rLdrM-56" style="edgeStyle=orthogonalEdgeStyle;rounded=0;orthogonalLoop=1;jettySize=auto;html=1;" parent="WIyWlLk6GJQsqaUBKTNV-1" source="6d0mBlJnEgmpbv1rLdrM-43" target="6d0mBlJnEgmpbv1rLdrM-21" edge="1">
          <mxGeometry relative="1" as="geometry">
            <Array as="points">
              <mxPoint x="890" y="905" />
              <mxPoint x="890" y="430" />
            </Array>
          </mxGeometry>
        </mxCell>
        <mxCell id="6d0mBlJnEgmpbv1rLdrM-61" value="YES" style="edgeLabel;html=1;align=center;verticalAlign=middle;resizable=0;points=[];" parent="6d0mBlJnEgmpbv1rLdrM-56" vertex="1" connectable="0">
          <mxGeometry x="-0.2124" y="2" relative="1" as="geometry">
            <mxPoint as="offset" />
          </mxGeometry>
        </mxCell>
        <mxCell id="6d0mBlJnEgmpbv1rLdrM-62" value="DISPENSE TO" style="edgeLabel;html=1;align=center;verticalAlign=middle;resizable=0;points=[];" parent="6d0mBlJnEgmpbv1rLdrM-56" vertex="1" connectable="0">
          <mxGeometry x="0.5596" relative="1" as="geometry">
            <mxPoint as="offset" />
          </mxGeometry>
        </mxCell>
        <mxCell id="6d0mBlJnEgmpbv1rLdrM-43" value="Is Patient BG and stored Blood compatible" style="rhombus;whiteSpace=wrap;html=1;" parent="WIyWlLk6GJQsqaUBKTNV-1" vertex="1">
          <mxGeometry x="570" y="850" width="113" height="110" as="geometry" />
        </mxCell>
        <mxCell id="6d0mBlJnEgmpbv1rLdrM-60" value="WARD STORE" style="rounded=1;whiteSpace=wrap;html=1;" parent="WIyWlLk6GJQsqaUBKTNV-1" vertex="1">
          <mxGeometry x="827" y="600" width="120" height="60" as="geometry" />
        </mxCell>
        <mxCell id="vHmafAAFR8HXC4GeySof-3" style="edgeStyle=orthogonalEdgeStyle;rounded=0;orthogonalLoop=1;jettySize=auto;html=1;" edge="1" parent="WIyWlLk6GJQsqaUBKTNV-1" source="vHmafAAFR8HXC4GeySof-0">
          <mxGeometry relative="1" as="geometry">
            <mxPoint x="830" y="150" as="targetPoint" />
          </mxGeometry>
        </mxCell>
        <mxCell id="vHmafAAFR8HXC4GeySof-0" value="Transfusion starts" style="rounded=1;whiteSpace=wrap;html=1;" vertex="1" parent="WIyWlLk6GJQsqaUBKTNV-1">
          <mxGeometry x="730" y="240" width="120" height="60" as="geometry" />
        </mxCell>
        <mxCell id="vHmafAAFR8HXC4GeySof-1" value="Compatible blood component" style="shape=parallelogram;perimeter=parallelogramPerimeter;whiteSpace=wrap;html=1;fixedSize=1;" vertex="1" parent="WIyWlLk6GJQsqaUBKTNV-1">
          <mxGeometry x="790" y="330" width="120" height="60" as="geometry" />
        </mxCell>
        <mxCell id="vHmafAAFR8HXC4GeySof-9" style="edgeStyle=orthogonalEdgeStyle;rounded=0;orthogonalLoop=1;jettySize=auto;html=1;" edge="1" parent="WIyWlLk6GJQsqaUBKTNV-1" source="vHmafAAFR8HXC4GeySof-5">
          <mxGeometry relative="1" as="geometry">
            <mxPoint x="1110" y="190" as="targetPoint" />
          </mxGeometry>
        </mxCell>
        <mxCell id="vHmafAAFR8HXC4GeySof-5" value="Charts and schedules monitoring&amp;nbsp;" style="rounded=1;whiteSpace=wrap;html=1;" vertex="1" parent="WIyWlLk6GJQsqaUBKTNV-1">
          <mxGeometry x="780" y="90" width="110" height="60" as="geometry" />
        </mxCell>
        <mxCell id="vHmafAAFR8HXC4GeySof-11" style="edgeStyle=orthogonalEdgeStyle;rounded=0;orthogonalLoop=1;jettySize=auto;html=1;entryX=0;entryY=0.5;entryDx=0;entryDy=0;" edge="1" parent="WIyWlLk6GJQsqaUBKTNV-1" source="vHmafAAFR8HXC4GeySof-10" target="vHmafAAFR8HXC4GeySof-12">
          <mxGeometry relative="1" as="geometry">
            <mxPoint x="1270" y="230" as="targetPoint" />
          </mxGeometry>
        </mxCell>
        <mxCell id="vHmafAAFR8HXC4GeySof-13" value="NO" style="edgeLabel;html=1;align=center;verticalAlign=middle;resizable=0;points=[];" vertex="1" connectable="0" parent="vHmafAAFR8HXC4GeySof-11">
          <mxGeometry x="-0.1" y="-1" relative="1" as="geometry">
            <mxPoint as="offset" />
          </mxGeometry>
        </mxCell>
        <mxCell id="vHmafAAFR8HXC4GeySof-14" style="edgeStyle=orthogonalEdgeStyle;rounded=0;orthogonalLoop=1;jettySize=auto;html=1;entryX=0;entryY=0.5;entryDx=0;entryDy=0;" edge="1" parent="WIyWlLk6GJQsqaUBKTNV-1" source="vHmafAAFR8HXC4GeySof-10" target="6d0mBlJnEgmpbv1rLdrM-20">
          <mxGeometry relative="1" as="geometry">
            <Array as="points">
              <mxPoint x="300" y="230" />
              <mxPoint x="300" y="610" />
            </Array>
          </mxGeometry>
        </mxCell>
        <mxCell id="vHmafAAFR8HXC4GeySof-15" value="YES" style="edgeLabel;html=1;align=center;verticalAlign=middle;resizable=0;points=[];" vertex="1" connectable="0" parent="vHmafAAFR8HXC4GeySof-14">
          <mxGeometry x="-0.7951" y="2" relative="1" as="geometry">
            <mxPoint as="offset" />
          </mxGeometry>
        </mxCell>
        <mxCell id="vHmafAAFR8HXC4GeySof-10" value="Adverse events" style="rhombus;whiteSpace=wrap;html=1;" vertex="1" parent="WIyWlLk6GJQsqaUBKTNV-1">
          <mxGeometry x="1070" y="190" width="80" height="80" as="geometry" />
        </mxCell>
        <mxCell id="vHmafAAFR8HXC4GeySof-12" value="COMPLETE TRANSFUSION" style="rounded=1;whiteSpace=wrap;html=1;" vertex="1" parent="WIyWlLk6GJQsqaUBKTNV-1">
          <mxGeometry x="1290" y="200" width="120" height="60" as="geometry" />
        </mxCell>
        <mxCell id="vHmafAAFR8HXC4GeySof-16" value="Lab carries further testing and uploads QA results" style="shape=parallelogram;perimeter=parallelogramPerimeter;whiteSpace=wrap;html=1;fixedSize=1;" vertex="1" parent="WIyWlLk6GJQsqaUBKTNV-1">
          <mxGeometry x="180" y="300" width="120" height="60" as="geometry" />
        </mxCell>
      </root>
    </mxGraphModel>
  </diagram>
</mxfile>
